<svg xmlns="http://www.w3.org/2000/svg" viewBox="0 0 512 512" role="img" aria-label="Talk-To-My-Lawyer logo">
  <defs>
    <linearGradient id="ring" x1="0%" x2="100%" y1="0%" y2="100%">
      <stop offset="0%" stop-color="#1f6fb2" />
      <stop offset="100%" stop-color="#0d457a" />
    </linearGradient>
    <linearGradient id="scales" x1="50%" x2="50%" y1="0%" y2="100%">
      <stop offset="0%" stop-color="#e8f2ff" />
      <stop offset="100%" stop-color="#bcd4f4" />
    </linearGradient>
  </defs>
  <circle cx="256" cy="256" r="244" fill="#0f2d4f" />
  <circle cx="256" cy="256" r="216" fill="none" stroke="url(#ring)" stroke-width="18" />
  <circle cx="256" cy="256" r="188" fill="#113a67" opacity="0.85" />
  <path fill="url(#scales)" d="M242 122c0-6 5-10 10-10h8c5 0 10 4 10 10v29h46c6 0 10 5 10 10s-4 10-10 10h-46v34h51c6 0 10 5 10 10 0 3-2 7-5 9l-88 66c-4 3-10 3-14 0l-88-66c-3-2-5-6-5-9 0-5 4-10 10-10h51v-34h-46c-6 0-10-5-10-10s4-10 10-10h46z" />
  <path fill="#0f2d4f" d="M256 264c-6 0-10 4-10 10v42c0 6 4 10 10 10s10-4 10-10v-42c0-6-4-10-10-10z" />
  <path fill="#dce9fb" d="M256 170c-6 0-10 5-10 10v70c0 6 4 10 10 10s10-4 10-10v-70c0-5-4-10-10-10z" />
  <path fill="#f6fbff" d="M182 233c0 24-20 44-44 44s-44-20-44-44c0-5 4-10 10-10h68c6 0 10 5 10 10zm236 0c0 24-20 44-44 44s-44-20-44-44c0-5 4-10 10-10h68c6 0 10 5 10 10z" />
  <path fill="#0f2d4f" d="M138 238c4 0 8-3 8-8v-38h-16v38c0 5 4 8 8 8zm236 0c4 0 8-3 8-8v-38h-16v38c0 5 4 8 8 8z" />
  <path fill="#dce9fb" d="M192 356h128c6 0 10 5 10 10s-4 10-10 10H192c-6 0-10-5-10-10s4-10 10-10z" />
  <path fill="#bcd4f4" d="M212 386h88c6 0 10 4 10 10s-4 10-10 10h-88c-6 0-10-4-10-10s4-10 10-10z" />
  <path fill="none" stroke="#82b5f4" stroke-width="12" stroke-linecap="round" d="M120 228h80m112 0h80M256 122v52m0 88v40" />
  <text x="256" y="420" text-anchor="middle" font-family="'Inter', 'Helvetica Neue', Arial, sans-serif" font-weight="700" font-size="36" fill="#e8f2ff" letter-spacing="1">
    TALK-TO-MY-LAWYER
  </text>
</svg>
